<svg width="676" height="116" viewBox="0 0 676 116" fill="none" xmlns="http://www.w3.org/2000/svg">
<path d="M10.1764 74.5239C3.76201 74.5822 0.0882956 77.7603 0.146609 83.3001L0.321547 106.392C0.350704 111.932 4.05358 115.081 10.4972 115.022C16.8824 114.964 20.4978 111.786 20.4687 106.246V101.844C20.4395 101.639 20.2646 101.465 20.0605 101.465L13.9085 101.523C13.7044 101.523 13.5294 101.698 13.5294 101.902V106.013C13.5877 108.491 12.5964 109.628 10.468 109.657C8.31042 109.657 7.26079 108.491 7.23163 106.071L7.05669 83.5625C7.05669 81.1425 8.07717 79.9471 10.2347 79.9179C12.3632 79.9179 13.3836 81.055 13.3836 83.5041V87.6152C13.4128 87.8193 13.5877 87.9943 13.7918 87.9943L19.9439 87.9359C20.1479 87.9359 20.3229 87.761 20.3229 87.5569V83.1543C20.2646 77.6145 16.5617 74.4656 10.2056 74.5239H10.1764Z" fill="white"/>
<path d="M74.029 74.5531L65.9527 74.6114C65.7777 74.6114 65.6319 74.728 65.5736 74.9321L58.6927 113.798C58.6927 113.798 58.6927 114.031 58.7802 114.089C58.8385 114.177 58.9551 114.235 59.0717 114.235L65.2821 114.177C65.457 114.177 65.6319 114.031 65.6611 113.856L67.0315 104.234L73.2418 104.176L74.7579 113.798C74.7579 113.973 74.9329 114.118 75.137 114.118L81.3473 114.06C81.3473 114.06 81.5514 114.002 81.6388 113.914C81.6972 113.827 81.7263 113.71 81.7263 113.594L74.3497 74.8447C74.3206 74.6697 74.1456 74.5531 73.9707 74.5531H74.029ZM72.3379 99.1903H67.9062L69.4806 87.9651C69.6847 86.6822 69.8596 84.9328 70.0054 83.4458C70.1804 84.9328 70.3844 86.653 70.5885 87.9651L72.3379 99.1903Z" fill="white"/>
<path d="M141.643 108.841L141.585 99.9192C141.585 97.0036 140.331 94.7877 138.202 93.738C140.302 92.5426 141.526 90.5017 141.497 88.14V82.8919C141.439 78.8683 139.602 74.0866 131.088 74.1449L121.496 74.2032C121.292 74.2032 121.117 74.3782 121.117 74.5823L121.408 113.39C121.408 113.594 121.583 113.769 121.787 113.769L127.939 113.71C128.144 113.71 128.318 113.535 128.318 113.331L128.202 96.6245H131.263C134.091 96.5954 134.704 98.5489 134.704 100.182L134.762 109.395C134.762 111.378 134.937 112.252 135.549 113.419C135.608 113.535 135.753 113.623 135.899 113.623L142.197 113.564C142.197 113.564 142.459 113.506 142.518 113.39C142.576 113.273 142.605 113.156 142.518 113.04C141.993 111.961 141.672 110.386 141.672 108.812L141.643 108.841ZM134.558 87.9359C134.616 89.5978 134.033 91.5513 131.205 91.5805H128.144L128.056 79.5972H131.117C133.946 79.568 134.558 81.5215 134.558 83.1543V87.9359Z" fill="white"/>
<path d="M204.242 73.591L198.09 73.6492C197.886 73.6492 197.711 73.8242 197.711 74.0283L197.827 89.9185L190.567 89.9769L190.451 74.0866C190.451 73.8825 190.276 73.7076 190.072 73.7076L183.92 73.7659C183.715 73.7659 183.541 73.9408 183.541 74.1449L183.832 112.952C183.832 113.156 184.007 113.331 184.211 113.331L190.363 113.273C190.567 113.273 190.742 113.098 190.742 112.894L190.626 95.4L197.886 95.3417L198.002 112.836C198.002 113.04 198.177 113.215 198.381 113.215L204.533 113.156C204.737 113.156 204.912 112.981 204.912 112.777L204.621 73.97C204.621 73.7659 204.446 73.591 204.242 73.591Z" fill="white"/>
<path d="M259.872 73.1828L251.796 73.241C251.621 73.241 251.475 73.3577 251.417 73.5618L244.536 112.427C244.536 112.427 244.536 112.661 244.623 112.719C244.682 112.806 244.798 112.865 244.915 112.865L251.125 112.806C251.3 112.806 251.475 112.661 251.504 112.486L252.875 102.864L259.085 102.806L260.601 112.427C260.601 112.602 260.776 112.748 260.98 112.748L267.191 112.69C267.191 112.69 267.395 112.631 267.482 112.544C267.54 112.457 267.57 112.34 267.57 112.223L260.193 73.4743C260.164 73.2994 259.989 73.1828 259.814 73.1828H259.872ZM258.181 97.8491H253.749L255.324 86.6239C255.528 85.341 255.703 83.5916 255.849 82.1046C256.024 83.5916 256.228 85.3119 256.432 86.6239L258.181 97.8491Z" fill="white"/>
<path d="M327.486 107.5L327.428 98.578C327.428 95.6624 326.174 93.4465 324.046 92.3969C326.145 91.2014 327.37 89.1605 327.34 86.7988V81.5507C327.282 77.5271 325.445 72.7454 316.932 72.8037L307.339 72.862C307.135 72.862 306.96 73.0369 306.96 73.241L307.252 112.048C307.252 112.252 307.427 112.427 307.631 112.427L313.783 112.369C313.987 112.369 314.162 112.194 314.162 111.99L314.045 95.2834H317.107C319.935 95.2542 320.547 97.2077 320.547 98.8404L320.605 108.054C320.605 110.037 320.78 110.911 321.393 112.077C321.451 112.194 321.597 112.282 321.742 112.282L328.04 112.223C328.04 112.223 328.303 112.165 328.361 112.048C328.419 111.932 328.448 111.815 328.361 111.698C327.836 110.62 327.515 109.045 327.515 107.471L327.486 107.5ZM320.401 86.5656C320.46 88.2275 319.876 90.181 317.048 90.2101H313.987L313.899 78.2268H316.961C319.789 78.1977 320.401 80.1511 320.401 81.7839V86.5656Z" fill="white"/>
<path d="M386.207 72.2789L366.614 72.4247C366.41 72.4247 366.235 72.5996 366.235 72.8037V77.4979C366.264 77.702 366.439 77.877 366.643 77.877L372.999 77.8186L373.233 111.553C373.233 111.757 373.408 111.932 373.612 111.932L379.764 111.873C379.968 111.873 380.143 111.698 380.143 111.494L379.909 77.7603L386.266 77.702C386.47 77.702 386.645 77.5271 386.645 77.323V72.6288C386.615 72.4247 386.441 72.2497 386.236 72.2497L386.207 72.2789Z" fill="white"/>
<path d="M443.966 71.8707L424.373 72.0165C424.169 72.0165 423.994 72.1914 423.994 72.3955V77.0897C424.023 77.2938 424.198 77.4688 424.402 77.4688L430.759 77.4104L430.992 111.144C430.992 111.349 431.167 111.524 431.371 111.524L437.523 111.465C437.727 111.465 437.902 111.29 437.902 111.086L437.669 77.3521L444.025 77.2938C444.229 77.2938 444.404 77.1189 444.404 76.9148V72.2206C444.375 72.0165 444.2 71.8415 443.996 71.8415L443.966 71.8707Z" fill="white"/>
<path d="M565.374 70.9668L559.164 71.0252C558.96 71.0252 558.814 71.171 558.785 71.3459L556.044 95.7207C555.898 96.9161 555.752 98.5489 555.636 99.9775C555.461 98.5489 555.286 96.9453 555.082 95.7207L551.175 71.4042C551.175 71.2293 551 71.0835 550.796 71.0835L544.644 71.1418C544.469 71.1418 544.294 71.2876 544.265 71.4625L540.737 95.8373C540.562 97.0619 540.387 98.6655 540.241 100.123C540.095 98.6946 539.92 97.0911 539.775 95.8665L536.655 71.55C536.655 71.375 536.48 71.2293 536.276 71.2293L530.065 71.2876C530.065 71.2876 529.861 71.3459 529.774 71.4334C529.716 71.5208 529.686 71.6375 529.686 71.7249L535.897 110.503C535.897 110.678 536.072 110.824 536.276 110.824L543.857 110.765C544.031 110.765 544.206 110.62 544.236 110.445L547.239 89.0438C547.443 87.7318 547.618 85.9824 547.763 84.4954C547.938 85.9824 548.143 87.7318 548.347 89.0147L551.729 110.357C551.729 110.532 551.904 110.678 552.108 110.678L559.688 110.62C559.863 110.62 560.038 110.474 560.067 110.299L565.782 71.4334C565.782 71.4334 565.782 71.2292 565.695 71.1418C565.636 71.0543 565.52 71.0252 565.403 71.0252L565.374 70.9668Z" fill="white"/>
<path d="M606.046 70.6189L612.198 70.5738C612.402 70.5723 612.578 70.7459 612.58 70.95L612.864 109.756C612.866 109.96 612.692 110.137 612.488 110.138L606.336 110.183C606.132 110.185 605.956 110.011 605.955 109.807L605.67 71.0007C605.669 70.7966 605.842 70.6204 606.046 70.6189Z" fill="white"/>
<path d="M665.556 70.2379L655.759 70.2962C655.555 70.2962 655.38 70.4712 655.38 70.6753L655.672 109.483C655.672 109.687 655.846 109.862 656.051 109.862L662.203 109.803C662.407 109.803 662.582 109.628 662.582 109.424L662.465 94.6711H665.73C674.244 94.5836 676.023 89.7728 675.994 85.7492L675.935 78.9557C675.906 74.9321 674.069 70.1505 665.556 70.2088V70.2379ZM669.025 79.3056L669.083 85.6034C669.083 87.2653 668.53 89.2188 665.701 89.248H662.436L662.348 75.7194H665.614C668.442 75.661 669.054 77.6437 669.054 79.2765L669.025 79.3056Z" fill="white"/>
<path d="M111.728 58.9544L95.663 59.071V54.8725C94.8174 57.6715 93.0681 59.1002 90.3857 59.1002L69.4222 59.2751C62.1622 59.3334 58.5176 55.8055 58.4593 48.6913L58.1969 18.2519L74.8453 18.1353L75.1077 49.9742C75.1077 51.8402 76.1282 52.7732 78.1108 52.744L92.0767 52.6274C94.0594 52.6274 95.0215 51.6653 95.0215 49.7993L94.7591 17.9604L111.407 17.8437L111.757 58.9544H111.728Z" fill="white"/>
<path d="M169.779 58.4879L153.13 58.6045V54.7559C152.401 57.3216 150.914 58.6337 148.611 58.6337L126.86 58.8086C119.6 58.8669 115.956 55.3682 115.898 48.3123L115.723 28.4567C115.664 21.3425 119.25 17.7563 126.452 17.698L147.124 17.5522C149.369 17.5522 151.119 18.9225 152.431 21.7216H152.81L152.664 2.65325L169.312 2.5366L169.779 58.5171V58.4879ZM153.043 49.3619L152.868 26.7948C152.868 24.9288 151.847 23.9958 149.865 24.025L135.316 24.1416C133.333 24.1416 132.371 25.1037 132.371 26.9697L132.546 49.5369C132.546 51.4029 133.566 52.3359 135.549 52.3067L150.477 52.1901C152.197 52.1901 153.043 51.2279 153.043 49.3619Z" fill="white"/>
<path d="M191.326 58.3421L174.677 58.4587L174.327 17.3481L190.976 17.2315L191.326 58.3421Z" fill="white"/>
<path d="M249.901 47.2918C249.959 54.3477 246.314 57.9048 238.967 57.9631L207.186 58.1963C199.839 58.2547 196.165 54.7559 196.107 47.7L195.932 27.757C195.874 20.7011 199.518 17.144 206.866 17.0857L238.646 16.8524C245.994 16.7941 249.667 20.2929 249.726 27.3488L249.901 47.2918ZM233.252 48.7496L233.077 26.1825C233.077 24.3165 232.115 23.3835 230.278 23.4126L215.35 23.5293C213.513 23.5293 212.58 24.4914 212.61 26.3574L212.784 48.9246C212.784 50.7906 213.717 51.7236 215.584 51.6944L230.512 51.5778C232.348 51.5778 233.281 50.6156 233.252 48.7496Z" fill="white"/>
<path d="M367.343 24.0832L349.732 24.229C347.75 24.229 346.788 25.1912 346.788 27.0572L347.021 57.1467L330.372 57.2633L330.023 16.1527L345.038 16.0361L345.738 20.497H345.942C346.234 17.523 348.654 16.0069 353.173 15.9777L367.255 15.8611L367.314 24.0832H367.343Z" fill="white"/>
<path d="M405.83 48.6913C405.83 49.5952 405.392 50.1783 404.488 50.4115L390.056 50.5282C388.19 50.5282 387.257 49.6243 387.228 47.7291L387.053 24.9871C387.053 23.1211 387.957 22.1589 389.823 22.1589L404.226 22.0423C405.13 22.2755 405.567 22.8295 405.567 23.7334V26.3574L422.974 26.1825C422.886 18.7768 418.921 15.3946 411.136 15.4821H408.862L405.713 15.5404L381.251 15.7153C373.845 15.7737 370.2 19.3599 370.259 26.4741L370.434 46.5629C370.492 53.6771 374.224 57.205 381.601 57.1467L407.9 56.9426H411.515C419.3 56.8843 423.178 53.473 423.178 46.0381L405.8 46.1256V48.7496L405.83 48.6913Z" fill="white"/>
<path d="M480.179 56.0971L463.53 56.2137L463.268 24.3748C463.268 22.5088 462.247 21.5758 460.265 21.605L446.299 21.7216C444.316 21.7216 443.354 22.6837 443.354 24.5497L443.616 56.3886L426.968 56.5053L426.502 0.52484L443.15 0.408189L443.296 18.3394H443.5C444.637 16.2984 446.445 15.2488 448.923 15.2488L469.012 15.1031C476.213 15.0448 479.858 18.5727 479.916 25.6868L480.179 56.1262V56.0971Z" fill="white"/>
<path d="M501.988 55.9221L485.339 56.0387L484.989 14.9281L501.638 14.8115L501.988 55.9221ZM501.404 9.06767C501.404 10.3214 500.617 10.9337 499.101 10.9337L486.68 10.8754C485.339 10.8754 484.669 10.2339 484.698 8.9802L484.814 2.0118C484.814 0.728919 485.602 0.0874659 487.118 0.0874659L501.346 0L501.404 9.06767ZM191.005 11.371C191.005 12.6247 190.217 13.237 188.701 13.237L176.281 13.1787C174.939 13.1787 174.269 12.5373 174.298 11.2835L174.415 4.31515C174.415 3.03226 175.202 2.39085 176.718 2.39085L191.15 2.2742L190.976 11.371H191.005Z" fill="white"/>
<path d="M564.441 14.3158L543.448 55.5722L526.8 55.6889L504.845 14.7532L522.747 14.6074L540.154 47.3501L556.831 14.345L564.499 14.2867L564.441 14.3158Z" fill="white"/>
<path d="M42.6858 18.3686H37.9332L13.296 18.6018H11.1093C3.64524 18.6893 -0.0576349 21.9548 0.000678057 29.069L16.649 28.9524V26.4449C16.6199 25.2787 17.3779 24.6956 18.9232 24.6664L34.9884 24.5497C36.5337 24.5497 37.2918 25.1037 37.2918 26.27V30.9933L11.2842 31.1974C7.26064 31.2266 4.40331 32.2762 2.74139 34.3755C1.07947 36.4456 0.263086 39.8569 0.292243 44.5802V46.5046C0.350556 51.2279 1.22525 54.6101 2.97464 56.6802C4.72403 58.7503 7.46473 59.7416 11.2259 59.7124L32.7725 59.5375C35.6299 59.5375 37.6417 58.0797 38.7788 55.1932H38.9829L39.7701 59.4792L54.2317 59.3626L53.9693 28.9232C53.911 21.809 50.1498 18.2811 42.6858 18.3394V18.3686ZM37.4959 50.7322C37.4959 52.5399 36.592 53.4438 34.7552 53.473L19.5355 53.5896C17.8736 53.5896 17.0281 52.7149 17.0281 50.9072L16.9406 40.8482C16.9406 38.9822 17.8444 38.0492 19.6813 38.02L37.3793 37.8743L37.4959 50.7322Z" fill="white"/>
<path d="M315.066 16.2693H310.313L285.676 16.5026H283.489C276.025 16.59 272.322 19.8556 272.381 26.9697L289.029 26.8531V24.3457C289 23.1794 289.758 22.5963 291.303 22.5671L307.368 22.4505C308.914 22.4505 309.672 23.0044 309.672 24.1707V28.8941L283.664 29.0981C279.641 29.1273 276.783 30.177 275.121 32.2762C273.459 34.3463 272.643 37.7577 272.672 42.481V44.4053C272.73 49.1286 273.605 52.5108 275.355 54.5809C277.104 56.651 279.845 57.6423 283.606 57.6132L305.152 57.4382C308.01 57.4382 310.022 55.9804 311.159 53.094H311.363L312.15 57.38L326.612 57.2633L326.349 26.8239C326.291 19.7098 322.53 16.1819 315.066 16.2402V16.2693ZM309.876 48.6038C309.876 50.4115 308.972 51.3154 307.135 51.3446L291.915 51.4612C290.253 51.4612 289.408 50.5865 289.408 48.7788L289.32 38.7198C289.32 36.8538 290.224 35.9208 292.061 35.8916L309.759 35.7458L309.876 48.6038Z" fill="white"/>
<path d="M603.481 47.2627C603.481 47.9041 603.248 48.3706 602.811 48.6622L585.812 48.808C583.976 48.808 583.043 47.9041 583.013 46.0381L582.955 38.5157L620.101 38.2241L619.984 24.4914C619.926 17.4356 616.223 13.9368 608.904 13.9951L577.124 14.2284C569.776 14.2867 566.161 17.8437 566.19 24.8996L566.365 44.8427C566.423 51.8985 570.126 55.3973 577.445 55.339H582.226V55.3098L606.863 55.1057H609.05C616.514 55.0183 620.217 51.7527 620.159 44.6386L603.51 44.7552V47.2627H603.481ZM585.55 20.6428L600.478 20.5261C602.315 20.5261 603.248 21.43 603.277 23.296L603.336 31.8681L582.868 32.0138L582.809 23.4418C582.809 21.5758 583.713 20.6428 585.55 20.6137V20.6428Z" fill="white"/>
<path d="M675.439 45.8631C675.469 51.7236 671.911 54.6684 664.739 54.7267L625.844 55.0182L625.786 48.9246L656.429 48.6913C658.587 48.6913 659.666 47.7583 659.666 45.9798V43.5598C659.637 41.8687 658.441 41.0523 656.109 41.0523L635.32 41.1981C628.935 41.2564 625.728 37.6702 625.669 30.4977V24.6664C625.582 17.6688 628.731 14.1117 635.116 14.0826L675.235 13.791L675.294 19.8847L644.096 20.1179C642.289 20.1179 641.414 20.9052 641.414 22.3922V24.5789C641.414 26.1534 642.347 26.9114 644.125 26.9114L664.564 26.7657C671.737 26.7074 675.352 29.6521 675.41 35.5417L675.498 45.8923L675.439 45.8631Z" fill="white"/>
</svg>
