<svg width="57" height="23" viewBox="0 0 57 23" fill="none" xmlns="http://www.w3.org/2000/svg">
<g clip-path="url(#clip0_75_607)">
<path d="M11.7533 12.1439C11.7533 11.819 11.7533 3.06022 11.7533 3.00707C11.7651 2.74129 11.7769 2.72357 12.0545 2.71767C12.7396 2.71176 16.1829 2.62317 16.5432 2.64089C16.9743 2.66451 16.998 2.67042 16.998 3.10747C16.998 5.61758 16.998 19.8986 16.998 19.9399C16.9861 20.2884 16.9448 20.3416 16.6022 20.3416C15.0903 20.3416 13.5783 20.3416 12.0663 20.3416C11.8773 20.3416 11.7592 20.2825 11.6411 20.123C11.1391 19.4497 10.6961 18.741 10.2236 18.0559C8.86521 16.0832 7.52452 14.1047 6.1602 12.1379C5.87671 11.7245 5.65228 11.2579 5.25066 10.9213C5.13844 10.9863 5.18569 11.0985 5.18569 11.1871C5.18569 13.9807 5.20932 19.8395 5.23294 19.9813C5.27428 20.2057 5.16207 20.3298 4.93173 20.3357C4.67776 20.3475 4.41789 20.3357 4.16393 20.3357C3.00633 20.3357 0.43716 20.3357 0.313132 20.3357C0.0237311 20.3238 -0.00579951 20.2884 0.00601275 20.0167C0.0119189 19.8455 0.017825 8.68286 0.017825 3.26694C0.017825 2.6527 -0.0471425 2.72357 0.596626 2.72357C1.50617 2.71767 4.26433 2.62908 4.73683 2.64089C5.02032 2.6527 5.21522 2.74129 5.37469 2.97754C6.11295 4.08789 11.582 12.0612 11.7533 12.1439Z" fill="white"/>
<path d="M26.1521 7.97411C26.1521 8.36982 26.1521 8.76553 26.1521 9.15533C26.1521 9.4093 26.3648 9.61011 26.6187 9.6042C27.4928 9.6042 28.3728 9.65145 29.247 9.52742C30.0029 9.42111 30.564 9.17896 30.7294 8.21035C30.877 7.37168 30.4577 6.66885 29.6486 6.43851C29.3946 6.36764 29.117 6.3263 28.8512 6.32039C28.0657 6.30267 27.2861 6.30858 26.5006 6.32039C26.1876 6.32039 26.1521 6.34992 26.1521 6.65704C26.1462 7.0941 26.1521 7.53705 26.1521 7.97411ZM26.158 14.713C26.158 15.1796 26.158 15.6462 26.158 16.1128C26.158 16.3313 26.3411 16.4967 26.5597 16.4967C27.6641 16.4789 28.7745 16.5852 29.873 16.4199C30.5876 16.3136 31.2196 15.9828 31.4204 15.0674C31.5858 14.2996 31.2196 13.4314 30.3573 13.1951C30.0738 13.1184 29.7903 13.0475 29.4891 13.0357C29.117 13.0239 28.5087 13.0357 28.1425 12.9943C27.5932 12.9294 27.044 12.9766 26.4947 12.9648C26.1935 12.9589 26.1699 12.9943 26.164 13.3192C26.164 13.7857 26.164 14.2523 26.164 14.7189M33.4757 10.9095C33.8419 11.0866 34.2199 11.2048 34.5861 11.3701C36.1808 12.0907 37.0312 13.4373 37.0194 15.4867C37.0194 16.0478 36.9072 16.6089 36.6887 17.1227C36.0863 18.5461 35.0645 19.5383 33.5525 19.9163C33.0033 20.0521 32.4363 20.1053 31.8752 20.188C30.2746 20.442 28.6623 20.3297 27.0558 20.3475C25.089 20.3652 23.1164 20.3475 21.1496 20.3475C21.0374 20.3475 20.9193 20.3475 20.8071 20.3475C20.6535 20.3475 20.5649 20.2884 20.5649 20.123C20.5649 20.0226 20.5649 19.9222 20.5649 19.8277V3.30236C20.5649 2.97752 20.8189 2.71765 21.1437 2.71765C23.6538 2.71765 32.6548 2.73537 33.6293 3.18424C34.8991 3.76894 35.7791 4.73755 36.0744 6.11368C36.4111 7.6729 36.0508 9.06084 34.8164 10.1535C34.4325 10.496 33.9778 10.7264 33.4757 10.9095Z" fill="white"/>
<path d="M45.4183 7.9269C45.4183 8.35215 45.4183 8.77148 45.4183 9.19672C45.4183 9.42706 45.6073 9.60425 45.8377 9.61015C46.7413 9.61015 47.6508 9.65149 48.5545 9.52747C49.1628 9.44478 49.6766 9.19672 49.8834 8.55886C49.9956 8.2163 49.9897 7.86784 49.9247 7.51938C49.8715 7.24179 49.7416 6.97602 49.529 6.79293C49.1333 6.44447 48.649 6.34997 48.1824 6.33225C47.3437 6.30272 46.4991 6.32634 45.6605 6.32044C45.4774 6.32044 45.4124 6.39131 45.4124 6.5744C45.4183 7.02917 45.4124 7.47804 45.4124 7.93281M45.4183 14.7485C45.4183 15.1974 45.4183 15.6462 45.4183 16.0951C45.4183 16.3195 45.6014 16.4967 45.8258 16.5026C46.7059 16.5026 47.5859 16.5262 48.4659 16.4908C48.9147 16.4731 49.3636 16.414 49.7889 16.2132C50.8638 15.7053 50.976 14.0929 49.9247 13.3487C49.0033 12.6991 46.4578 12.9707 45.7609 12.9589C45.4479 12.953 45.4242 12.9826 45.4183 13.3015C45.4183 13.7799 45.4183 14.2642 45.4183 14.7485ZM39.7662 2.78266C39.9906 2.68816 49.3754 2.65863 49.653 2.66454C50.8933 2.68816 52.1218 2.75904 53.2439 3.38509C53.8582 3.72764 54.3543 4.19423 54.7382 4.76712C55.2284 5.49948 55.4706 6.39131 55.4292 7.27132C55.3524 8.8837 54.4842 10.2303 52.8955 10.8209C52.8423 10.8386 52.7892 10.8504 52.736 10.9213C52.801 11.0099 52.9073 11.0276 53.0077 11.0631C53.5688 11.2284 54.1003 11.4706 54.5846 11.8013C55.4174 12.3683 55.8958 13.1715 56.1084 14.1224C56.3033 14.9847 56.2974 15.8647 56.0375 16.7211C55.5414 18.3571 54.4783 19.4557 52.801 19.9104C52.2576 20.0581 51.6847 20.0994 51.1236 20.188C49.6353 20.4184 40.2327 20.3475 40.1855 20.3475C39.778 20.3416 39.6953 20.2589 39.7898 19.8632C39.8311 19.6801 39.8488 2.99528 39.7602 2.78266" fill="white"/>
</g>
<defs>
<clipPath id="clip0_75_607">
<rect width="56.25" height="17.7184" fill="white" transform="translate(0 2.64075)"/>
</clipPath>
</defs>
</svg>
